# xmcd
#
# Track frame offsets:
#	150
#	13672
#	25641
#	42516
#	55703
#	69529
#	85420
#	97182
#	113224
#	129447
#	146787
#	162832
#
# Disc length: 2430 seconds
#
# Revision: 1
# Processed by: cddbd v1.5.2PL0 Copyright (c) Steve Scherf et al.
# Submitted via: audiograbber 1.83.01
#
DISCID=a2097c0c
DTITLE=Pokey LaFarge - Pokey LaFarge
DYEAR=2013
DGENRE=Crossover
TTITLE0=Central Time
TTITLE1=The Devil Ain't Lazy
TTITLE2=What The Rain Will Bring
TTITLE3=Won'tcha Please Don't Do It
TTITLE4=One Town At A TIme
TTITLE5=Kentucky Mae
TTITLE6=Bowlegged Woman
TTITLE7=City Summer Blues
TTITLE8=Day After Day
TTITLE9=Let's Get Lost
TTITLE10=Close The Door
TTITLE11=Home Away From Home
EXTD=
EXTT0=
EXTT1=
EXTT2=
EXTT3=
EXTT4=
EXTT5=
EXTT6=
EXTT7=
EXTT8=
EXTT9=
EXTT10=
EXTT11=
PLAYORDER=
